<?xml version="1.0" encoding="utf-8"?>
<!-- Generator: Adobe Illustrator 17.1.0, SVG Export Plug-In . SVG Version: 6.00 Build 0)  -->
<!DOCTYPE svg PUBLIC "-//W3C//DTD SVG 1.1//EN" "http://www.w3.org/Graphics/SVG/1.1/DTD/svg11.dtd">
<svg version="1.1" id="Layer_1" xmlns="http://www.w3.org/2000/svg" xmlns:xlink="http://www.w3.org/1999/xlink" x="0px" y="0px"
	 viewBox="0 0 960 560" enable-background="new 0 0 960 560" xml:space="preserve">
<path fill-rule="evenodd" clip-rule="evenodd" fill="#43A3DB" d="M352,362.4c-26.4,0-52.8,0-79.2,0c-6.2,0-12.3,0-18.5,0
	c-3,0-7,0.4-9.6-0.2c-1.1,0-2.2,0-3.4,0c-1.5-0.4-3.4-0.3-5-0.7c-7.7-2.1-13.6-4.8-19.2-8.9c-0.8-0.9-1.6-1.8-2.4-2.6
	c-5.7-5.7-8.2-11.7-10.6-20.9c-0.8-3-0.5-7.5-0.5-11c0-6.3,0-12.6,0-19c0-32.2,0-64.5,0-96.7c11.7,0,23.4,0,35,0
	c0,30.6,0,61.3,0,91.9c0,5,0,9.9,0,14.9c0,2.4-0.2,5.5,0.2,7.4c0,1,0,2.1,0,3.1c0.5,2.2,1.2,4.7,2.9,5.8c2.2,1.5,6.2,1.2,9.8,1.2
	c6.9,0,13.8,0,20.6,0c26.3,0,53.3,0,79.7,0c0,0.3,3.3,0.3,4.8,0c2.8-0.5,5.7-1.9,8.4-3.1c7.9-3.5,16.4-11.4,20.9-18.5
	c2.7-4.2,4.5-9.2,6.2-14.4c2.8-8.3,1.5-21.3-1.2-28.3c-0.6-1.6-0.8-3-1.4-4.6c-4.6-10.5-14.6-20.8-25-25.4
	c-3.9-1.7-8.6-2.8-12.5-3.8c-4.6-1.3-14-0.8-18,0.5c-0.9,0.3-2.9,0.2-4.3,0.7c-2.8,0.9-5.7,1.9-8.4,3.1c-1,0.4-2,1.4-2.9,1.9
	c-1.5,0.9-2.9,1.4-4.3,2.4c-0.7,0.5-1.2,1.4-1.9,1.9c-9.1,6.7-14.5,16.2-18,28.6c-0.4,1.6-0.4,3.2-0.7,4.6c0,1,0,1.9,0,2.9
	c-0.7,3.1-0.3,8.1,0.5,10.8c0.1,0.9,0.2,1.8,0.2,2.6c0.8,2.6,1.3,5.4,2.4,7.9c1.6,3.9,3.7,7.7,6,11c0.7,1,1.9,1.9,2.6,2.9
	c1.7,2.4,7.2,8.3,10.1,9.1c0,0.1,0,0.2,0,0.2c-14.8,0-29.6,0-44.4,0c-2.1-3.9-4.2-8-6-12.2c-1.1-3.8-2.2-7.5-3.4-11.3
	c-0.5-1.8-0.2-3.2-0.7-5c-2.6-9.8-1.2-25.6,1.4-34.1c1.3-4,1.8-7.6,3.4-11.3c8.7-19.9,22.7-35.6,42.5-44.4c1.7-0.7,3.5-1.9,5.3-2.6
	c4.1-1.7,8.7-2.6,13-3.8c3.2-0.5,6.4-1,9.6-1.4c1,0,2.1,0,3.1,0c3.1-0.7,10.1-0.5,13,0.2c0.7,0,1.4,0,2.2,0c2.4,0.4,4.8,0.8,7.2,1.2
	c7.6,2.2,14.8,4.1,21.1,7.4c20.5,10.8,34.5,27.9,42.5,51.4c4.1,12,4.6,32.6,0.5,44.9c-0.4,1.3-0.3,2.3-0.7,3.6
	c-1,2.8-1.9,5.9-3.1,8.6c-8.3,19-23.1,34.6-42,43c-0.8,0.3-1.6,1.1-2.4,1.4c-2.8,1.2-5.8,2.3-8.6,3.1c-1.3,0.4-2.2,0.5-3.5,0.9
	C361.5,360.3,353.2,362,352,362.4z"/>
<path fill-rule="evenodd" clip-rule="evenodd" fill="#43A3DB" d="M683.2,197.1c1.8,0.5,10.5,2.4,12.5,2.9c3.1,0.8,6.4,1.6,9.4,2.9
	c2,0.8,4.1,2.1,6,2.9c19.2,8.5,33.5,23.8,42,43c1.2,2.8,2.2,5.8,3.1,8.6c0.4,1.3,0.3,2.3,0.7,3.6c4.1,12.3,3.6,32.9-0.5,44.9
	c-9.7,28.4-27.8,47.2-56.2,56.9c-4.6,1.6-9.6,1.9-14.6,3.1c-1.8,0.1-3.7,0.2-5.5,0.2c-2.4,0.6-7.2,0.6-9.6,0
	c-2.4-0.2-4.8-0.3-7.2-0.5c-4.6-1.2-9.4-1.8-13.4-3.4c-1.7-0.5-3.4-1-5-1.4c-1.7-0.7-3.6-1.9-5.3-2.6c-1.5-0.7-2.8-0.9-4.1-1.7
	c-7.6-4.7-16.4-10-21.6-17c-1-1.3-2.6-2.3-3.6-3.6c-3.3-4.5-6.4-9.1-9.4-13.9c-0.9-1.5-1.2-2.9-1.9-4.6c-1.3-2.8-2.6-6-3.8-9.1
	c-6.3-16.5-4.7-41.8,1.7-56.6c0.6-1.3,0.6-2.3,1.2-3.6c0.8-1.7,2-3.6,2.9-5.3c0.4-0.8,0.7-2.5,1.4-2.9c14.8,0,29.6,0,44.4,0
	c0,0.1,0,0.2,0,0.2c-0.2,0-0.3,0-0.5,0c-0.7,0.9-1.7,1.3-2.6,1.9c-0.3,0.4-0.6,0.8-1,1.2c-1.1,0.8-3.5,3.1-3.6,3.4
	c-0.7,0.9-1.6,1.6-2.4,2.6c-0.7,1-1.9,1.9-2.6,2.9c-2.1,3-4,6.4-5.5,9.8c-1.4,3.2-2.1,6.8-3.1,10.3c-0.1,1.1-0.2,2.2-0.2,3.4
	c-1.8,7.3,0.4,17.7,2.6,22.8c1.1,2.5,1.5,5,2.9,7.2c7.2,11.6,16.4,19.5,30.5,24.2c1,0.2,2.1,0.3,3.1,0.5c1.3,0.4,3.6,0.7,5.5,1.2
	c1.2,0,2.4,0,3.6,0c0.5,0.1,2,0.5,2.9,0.2c0.9-0.2,2.7,0.1,3.8-0.2c1.6-0.4,4.7-1.2,5.8-1c4.2-1.6,8.9-2.3,12.5-4.6
	c9.7-5.9,17.8-13.4,22.6-24.2c1-2.3,1.3-4.4,2.2-7c1.9-5.9,3-17.1,1-24c-1.4-4.8-2.8-10-5.3-13.9c-5.3-8.6-12.7-16.6-22.3-20.9
	c-2.7-1.2-5.7-2.2-8.4-3.1c-1.6-0.6-4.8-0.3-4.8,0c-27.6,0-55.8,0-83.3,0c-6.1,0-12.2,0-18.2,0c-4.5,0-8.3,0-10.1,2.6
	c-0.7,1.1-1.1,2.9-1.4,4.3c0,1,0,2.1,0,3.1c-0.6,2.6-0.2,6.4-0.2,9.4c0,6,0,12,0,18c0,12,0,24,0,36c0,5.2,0.6,11.4-0.5,15.8
	c-0.1,1.2-0.2,2.4-0.2,3.6c-2.1,8.2-4.3,12.9-8.6,18.7c-1.4,1.9-4,3.6-6,5c-0.4,0.3-0.8,0.9-1.2,1.2c-4.8,3.1-10.5,4.6-16.8,6.2
	c-2.4,0.6-4.9-0.1-7.4,0.5c-1.8,0.4-4.7,0.2-7,0.2c-4.4,0-8.8,0-13.2,0c-29.2,0-58.4,0-87.6,0c0-11.9,0-23.8,0-35.8
	c26.9,0,53.8,0,80.6,0c6.7,0,13.4,0,20.2,0c3.9,0,7.8,0.2,10.1-1.4c3.1-2.3,2.2-13.5,2.2-19.2c-1.7,0-4.4,0.1-6,0.5
	c-9.3,0-18.6,0-27.8,0c-6.2,0-12.5,0-18.7,0c-3,0-7,0.4-9.6-0.2c-1.3,0-2.6,0-3.8,0c-1.6-0.4-3.3-0.3-5-0.7
	c-16.3-4.4-26.1-11.9-31.2-27.4c-2-5.9-1.7-13.6-1.7-21.4c0-7.4,0-14.7,0-22.1c0-10.8,0-21.6,0-32.4c11.8,0,23.5,0,35.3,0
	c0,16.4,0,32.8,0,49.2c0,6.2-1,15.1,2.6,17.8c2.5,1.8,7.4,1.4,11.8,1.4c8.6,0,17.1,0,25.7,0c5.7,0,11.4,0,17,0
	c3.7,0,7.2,0.1,9.4-1.4c3.5-2.5,2.4-11.6,2.4-17.5c0-16.5,0-33,0-49.4c8.9,0,17.8,0,26.6,0C566.6,197.5,647.4,197.1,683.2,197.1z"/>
</svg>
